<svg xmlns="http://www.w3.org/2000/svg" width="18" height="18"><path fill-rule="evenodd" fill="#094074" d="M17.249 17.919c.721 0-.304-.057-.419-.173l-5.299-5.298a6.505 6.505 0 01-4.178 1.513C3.752 13.961.821 11.32.821 7.43A6.54 6.54 0 017.353.899a6.538 6.538 0 016.531 6.531c0 1.74-.568 3.045-1.514 4.178l5.298 5.299c.116.323.174.267.174.419a.594.594 0 01-.593.593zM7.353 2.86C4.406 2.86 2.9 4.484 2.9 7.43c0 2.947 1.506 5.344 4.453 5.344a5.35 5.35 0 005.344-5.344c0-2.946-2.398-4.57-5.344-4.57z"/></svg>