<svg xmlns="http://www.w3.org/2000/svg" width="9" height="16"><path fill-rule="evenodd" fill="#A1A1A1" d="M6.189.124c.413 0 .991.022 1.24.041.268.011.537.049.789.077l-.019 2.485H8.2c-.471 0-.744-.004-1.016-.004-.205 0-.409.002-.614.009-.658.022-1.143.368-1.176 1.092-.022.592-.036 1.9-.037 1.969l1.339.002c.544 0 .648 0 .871-.002H8.99c-1.024.954-1.147 1.87-1.28 2.792H5.357l-.053 6.971H2.413l.054-6.982H.103l.021-2.776h2.375L2.5 5.59c.005-.29-.002-1.119.019-1.679.008-.351.027-.713.09-1.064.16-.85.555-1.563 1.266-2.073C4.499.33 5.208.143 5.959.126c.401-.001.154-.002.23-.002z"/></svg>