<svg xmlns="http://www.w3.org/2000/svg" width="19" height="12"><path fill-rule="evenodd" fill="#A1A1A1" d="M18.928 4.963v.217l-.011 1.281-.001.06h-1.99l-.015 1.931v.055h-1.558v-.055l.015-1.931h-1.991v-.06l.011-1.281.001-.217h1.991l.014-1.693.001-.298h1.558l-.001.298-.015 1.693h1.991zM8.139 11.54a6.148 6.148 0 01-1.872.186 5.557 5.557 0 01-3.036-1.08C2.69 9.79 1.337 8.649 1.3 7.239.918 6.729.879 6.22.921 5.704c.179-1.218.506-2.31 1.287-3.258C3.16 1.453 4.46.805 5.278.493c.312-.082.625-.132.944-.148.181-.006.362-.017.543-.017.966.011 1.869.253 2.699 1.362.746-.303.873.02 1.009.119-.569.56-1.116 1.108-1.675 1.657-.414-.357-.872-.686-1.667-.806a3.363 3.363 0 00-.486-.036c-1.145 0-2.93 1.153-3.286 2.663a3.12 3.12 0 00-.079 1.031 3.415 3.415 0 002.331 2.968 3.3 3.3 0 001.233.143c.598-.039 1.356-.198 1.666-.533.854-.581 1.13-1.492 1.132-1.717H6.587l.017-2.199.006-.093h5.364c.289 1.673.326 3.433-1.013 4.81-.72.949-1.679 1.546-2.822 1.843z"/></svg>