<svg xmlns="http://www.w3.org/2000/svg" width="15" height="14"><path fill-rule="evenodd" fill="#A1A1A1" d="M13.919 10.779c-.423 1.558-1.44 2.479-3.015 2.731-.59.095-2.18.152-3.769.152-1.626 0-3.249-.06-3.796-.201C1.79 13.6.866 12.51.62 10.483.437 9.331.417 3.977.75 2.814 1.183 1.3 2.195.411 3.726.159 4.421.46 5.778.6 7.15.6c1.275 0 2.56-.2 3.334.23.938-.698 1.797-.396 2.494.273.664.636 1.004 1.431 1.702 2.331-.51 1.075-.444 6.155-.761 7.345zm-1.08-7.23c-.123-1.201-.857-1.991-2.046-2.177-.588-.089-2.006-.129-3.415-.129-1.198 0-2.714.036-2.698.101-1.803.137-1.92.872-2.794 2.057-.196 1.256-.194 5.952-.047 6.895.151.982.706 1.656 1.686 1.93 1.025.149 2.117.202 3.674.202 1.432 0 3.181-.045 3.368-.103 1.202-.131 1.997-.872 2.187-2.067.196-.698.197-5.584.085-6.709zm-1.858.661c-.455-.05-.814-.562-.811-1.012a.822.822 0 01.819-.817h.01c.45 0 .815.367.811.823-.003.449-.374 1.006-.829 1.006zm-3.69 6.13a3.468 3.468 0 01-3.473-3.505 3.53 3.53 0 013.532-3.5 3.47 3.47 0 013.472 3.505 3.535 3.535 0 01-3.531 3.5zm.066-5.771h-.02c-.387 0-1.607 1-1.817 2.244-.2 1.827.76 3.077 1.758 2.287h.021a2.287 2.287 0 002.284-2.243 2.243 2.243 0 00-2.226-2.288z"/></svg>