<svg xmlns="http://www.w3.org/2000/svg" width="51" height="39"><path fill-rule="evenodd" fill="#A3BBC8" d="M49.727 38.647c-.405.329-.903.212-.908.212L.778 29.61a10.19 10.19 0 00-.622-.936c.664-.312-.156.026.734-.848-.713-.18 5.611-12.932 5.782-13.257.171-.325.798-.387.507-.452L42.372.67s.571-.551.966-.552a.96.96 0 01.448.645l6.584 37.079s-.239.476-.643.805zm-6.251-2.7l-20.527-11.41-17.523 3.65 38.05 7.76zm2.266-.838L36.31 21.806l-10.617 2.158 20.049 11.145zM2.735 26.924l17.833-3.715L8.47 16.227 2.735 26.924zM9.709 15.55l13.601 7.089 12.371-2.089L41.24 2.468 9.709 15.55zM42.487 5.132l-4.903 15.521L47.363 34.5 42.487 5.132z"/></svg>