<svg xmlns="http://www.w3.org/2000/svg" width="15" height="13"><path fill-rule="evenodd" fill="#A1A1A1" d="M14.69 2.277a4.672 4.672 0 01-.333.45c.113.383-.669.724-1.072 1.014l-.05.093c.013.434-.006.867-.065 1.301.36 1.315-.381 1.782-.771 2.61-.412.856-.94 1.629-1.603 2.795-1.128.672-2.477 1.418-4.048 1.763a9.068 9.068 0 01-1.901.196c-1.588 0-3.06.261-4.416-1.265L.36 11.19c.232.025.462.037 1.13.037.334 0 1.08.593 1.808-.438a5.786 5.786 0 001.399-.817c-1.519-.049-2.465-1.146-2.71-2.035a2.8 2.8 0 00.544.053c.238 0 1.069-.03.712-.086l.044-.022c-.827-.191-1.46-.631-1.893-1.343-.293.131-.425-.993-.421-1.558.415.219.842.34 1.303.351-.617-.444-1.029-1.032-.456-1.778-.902-.745-.49-1.453-.404-2.122 1.571 1.87 3.571 2.896 6.022 3.066-.016-.12-.031-.219-.047-.324a2.84 2.84 0 01.448-1.914C8.31 1.525 8.978 1.7 9.834.933c.336-.031.361-.046.534-.046.767 0 1.445.295 2.028.863.036.033.066.05.107.05a.186.186 0 00.045-.006 5.76 5.76 0 001.711-.653l.039-.022c.542.681-.64 1.207-.778 1.596.103-.06.641-.214 1.17-.438z"/></svg>