<svg xmlns="http://www.w3.org/2000/svg" width="55" height="37"><path fill-rule="evenodd" fill="#A3BBC8" d="M46.78 17.812v1.991a.785.785 0 11-1.571 0v-1.991c0-.435.352-.562.786-.562.434 0 .785.127.785.562zM36.756 14.9V6.7c0-.434.352-.786.786-.786h4.301a4.944 4.944 0 014.937 4.941V14.9c0-.376-.351-.024-.785-.024h-8.453c-.434 0-.786-.352-.786.024zm1.571-1.596h6.882v-2.449a3.371 3.371 0 00-3.366-3.369h-3.516v5.818zm10.809 12.422h-2.782c-.378 3.264-2.436 4.193-4.912 4.193-2.475 0-4.534-.929-4.911-4.193H25.279c-.378 3.264-2.436 4.193-4.912 4.193-2.475 0-4.534-.929-4.912-4.193H13.36c-.757 0-1.109-.352-1.109-.786V1.353c0-.434.352-.786 1.109-.786h6.47c-.313 0 .038.352.038.786 0 .435-.351.787-.038.787h-6.008v22.014h1.633a4.984 4.984 0 014.912-4.193 4.983 4.983 0 014.912 4.193h8.335v-.874c0-.686.352-1.037.786-1.037.434 0 .785.351.785 1.037v.874h1.346a4.982 4.982 0 014.911-4.193 4.983 4.983 0 014.912 4.193h1.997V10.855c0-3.592-2.92-6.514-6.508-6.514h-6.658V19.36a.785.785 0 11-1.571 0V2.14H22.225a.786.786 0 010-1.573H34.4c.434 0 .785.352.785.786v1.416h6.658c4.454 0 8.079 3.628 8.079 8.086V24.94a.786.786 0 01-.786.786zm-28.769-4.192c-1.877 0-3.403 2.076-3.403 3.406a3.408 3.408 0 003.403 3.407 3.41 3.41 0 003.404-3.407c0-1.33-1.527-3.406-3.404-3.406zm21.076 0c-1.877 0-3.043 2.076-3.053 3.405v.002c.01 1.878 1.176 3.406 3.053 3.406a3.409 3.409 0 003.403-3.407c0-1.33-1.527-3.406-3.403-3.406zm0 5.433c-1.117 0-2.025-.397-2.025-2.027 0-1.118.908-2.027 2.025-2.027 1.116 0 2.025.909 2.025 2.027 0 1.63-.909 2.027-2.025 2.027zm0-2.482a.455.455 0 100 .91.455.455 0 000-.91zm-21.076 2.482c-1.116 0-2.025-.397-2.025-2.027 0-1.118.909-2.027 2.025-2.027 1.117 0 2.025.909 2.025 2.027 0 1.63-.908 2.027-2.025 2.027zm0-2.482a.455.455 0 000 .91.455.455 0 000-.91zM10.34 17.911H4.737a.786.786 0 010-1.571h5.602a.785.785 0 11.001 1.571zM9.816 6.905H3.69a.785.785 0 010-1.572h6.126a.785.785 0 010 1.572zM9.3 12.408c0 .435-.621.787-1.055.787H1.596a.786.786 0 010-1.572h6.649c.434 0 1.055.351 1.055.785zm-7.704 10.22h3.387a.786.786 0 010 1.573H1.596a.786.786 0 010-1.573zm6.005 0h.644c.434 0 1.055.353 1.055.787 0 .434-.621.786-1.055.786h-.644a.786.786 0 010-1.573z"/><path fill-rule="evenodd" opacity=".341" fill="#A3BBC8" d="M44.749 17.406c5.42 0 9.813 4.386 9.813 9.796 0 5.411-4.393 9.797-9.813 9.797-5.419 0-9.812-4.386-9.812-9.797 0-5.41 4.393-9.796 9.812-9.796z"/></svg>