<svg xmlns="http://www.w3.org/2000/svg" width="52" height="54"><path fill-rule="evenodd" opacity=".341" fill="#A3BBC8" d="M41.984 33.593c5.41 0 9.797 4.393 9.797 9.813 0 5.419-4.387 9.812-9.797 9.812-5.411 0-9.797-4.393-9.797-9.812 0-5.42 4.386-9.813 9.797-9.813z"/><path fill-rule="evenodd" fill="#A3BBC8" d="M25.463 49.206c-5.361 0-10.363-1.697-14.728-4.906a.938.938 0 111.125-1.5 22.485 22.485 0 0013.603 4.53c12.506 0 22.68-10.174 22.68-22.681 0-4.253-1.183-8.398-3.423-11.988-.274-.439-.14-1.018.47-1.292.269.581 1.18-.14 1.121.3 2.425 3.887 3.879 8.781 3.879 12.98 0 13.54-10.89 24.557-24.727 24.557zm9.319-13.723c-.518 0-.938.147-.938-.937V29.45h-6.938c-.337 0-.649-.586.004-.88-.986-.293-.982-.654-.809-.943l7.876-13.189a.939.939 0 011.742.472l.001.009v7.609c0 .932-.42.937-.938.937s-.938-.005-.938-.937v-4.21l-5.286 8.852h5.286v-1.517a.939.939 0 011.876 0v1.517h2.601c.518 0 .937.42.937.937 0 .518-.419 1.343-.937 1.343H35.72v5.096c0 1.084-.42.937-.938.937zM18.374 15.856a3.974 3.974 0 00-3.969 3.97.937.937 0 11-1.875 0 5.851 5.851 0 015.844-5.845 5.85 5.85 0 015.844 5.845c0 3.414-1.329 6.625-3.744 9.038l-4.743 4.744h7.55c.518 0 .937.672.937.938 0 1.084-.419.937-.937.937h-9.814c.413 0-.72-.228-.866-.578a.94.94 0 01.204-1.023l6.343-6.343a10.832 10.832 0 003.195-7.713c0-2.189-1.78-3.97-3.969-3.97zm24.458-6.298l-4.061.096h-.022a.937.937 0 01-.022-1.874l1.843-.044C36.434 4.49 31.4 1.969 25.463 1.969c-12.507 0-22.681 10.174-22.681 22.681 0 6.14 2.415 11.891 6.799 16.192a.938.938 0 11-1.313 1.338C3.521 37.524.907 31.298.907 24.649.907 11.109 11.922.94 25.463.94c3.484 0 6.852-.131 10.009 1.28a24.41 24.41 0 016.345 4.111l-.041-1.748c-.013.057.397-.948.915-.961.516-.01.947.578.959.916l.097 4.06a.939.939 0 01-.915.96z"/></svg>