<svg xmlns="http://www.w3.org/2000/svg" width="54" height="53"><path fill-rule="evenodd" fill="#A3BBC8" d="M40.381 26.239a.835.835 0 01-.836-.836v-2.04a3.1 3.1 0 01-2.256-2.979 3.097 3.097 0 013.092-3.096c2.479 0 3.092 1.388 3.092 3.096a3.1 3.1 0 01-2.256 2.979v2.04a.835.835 0 01-.836.836zm1.421-5.855c0-.784-.638-1.422-1.421-1.422a1.423 1.423 0 000 2.844c.783 0 1.421-.638 1.421-1.422zm6.732 2.352c.461 0 .835.375.835.836v3.186c0 1.679-.869 3.045-3.041 3.045H34.434a3.046 3.046 0 01-3.041-3.045V16.11c0-1.555 1.026-2.775 2.393-2.74V7.2c0-3.82 2.958-6.782 6.595-6.782 3.789 0 6.595 2.962 6.595 6.782v6.17c1.367-.036 2.393 1.184 2.393 2.74v4.674a.835.835 0 01-.835.836c.186 0-.836-.374-.836-.836V16.11c0-.855.132-1.47-1.37-1.47H34.434c-.755 0-.794.615-.794 1.47v10.648c0 .756.039 1.371.794 1.371h11.894c1.502 0 1.37-.615 1.37-1.371v-3.186c0-.461 1.022-.836.836-.836zm-13.077-9.769h9.847V7.2c0-2.898-1.354-4.28-4.923-4.28-2.715 0-4.924 1.382-4.924 4.28v5.767zM5.71 35.228h8.185c.462 0 .836.374.836 1.412 0-.113-.374.261-.836.261H5.71c-.461 0-.835-.374-.835-.261 0-1.038.374-1.412.835-1.412zm0-3.993h14.271c.462 0 .836.375.836 1.485 0-.185-.374.189-.836.189H5.71c-.461 0-.835-.374-.835-.189 0-1.11.374-1.485.835-1.485zm23.51-9.881H15.4c-.858 0-1.232-.374-1.232-.836 0 .042.374-.837 1.232-.837h13.82c.462 0 1.34.879 1.34.837 0 .462-.878.836-1.34.836zm0 7.143H1.929v11.919c0 1.193.97 2.165 2.991 2.165h38.506a2.167 2.167 0 002.163-2.165v-8.265a.836.836 0 111.672 0v8.265a3.84 3.84 0 01-3.834 3.838H4.92c-2.942 0-4.662-1.723-4.662-3.838v-23.62c0-2.116 1.72-3.838 4.662-3.838h24.3c.462 0 1.34.374 1.34.836 0 .462-.878.837-1.34.837H4.92c-2.021 0-2.991.971-2.991 2.165v2.885h9.868c.462 0 .836.879.836.836a.836.836 0 01-.836.837H1.929v5.47H29.22c.462 0 1.34.375 1.34.836 0 .463-.878.837-1.34.837z"/><path fill-rule="evenodd" opacity=".341" fill="#A3BBC8" d="M43.999 33.62c5.42 0 9.813 3.828 9.813 9.239 0 5.41-4.393 9.796-9.813 9.796-5.419 0-9.812-4.386-9.812-9.796 0-5.411 4.393-9.239 9.812-9.239z"/></svg>