<svg xmlns="http://www.w3.org/2000/svg" width="19" height="17"><path fill-rule="evenodd" fill="#243F4D" d="M18.935 3.932l-2.123 7.955a.593.593 0 01-.572.44H5.884a.04.04 0 00-.022 0c-1.33.001-2.206.494-2.68 1.51.638.673-.314.341-.537.341a.587.587 0 01-.25-.056c.585-.139-.425-.491-.286-.787.579-.385 1.627-1.974 3.053-2.151L4.107 5.793c.343-.321.147-.633.468.177.321-.66.631-.725.695-.405l1.092 5.578h9.423l1.806-6.771H4.289C2.161 4.372.321 2.788.6.679.42.355.18.54.504.6c.315-.12.625-.42.673-.095.229 1.855 1.567 2.681 3.116 2.681h14.07a.591.591 0 01.572.746zM5.527 12.83h.005c1.298 0 1.07.61 1.461.603.392.393.608.912.608 1.466a2.065 2.065 0 01-1.276 1.917c.335.109-.53.161-.799.161-.537 0-1.064-.21-.886-.606-1.172-.594-1.35-1.481-1.028-2.261a2.068 2.068 0 011.915-1.28zm-.626 2.702a.888.888 0 001.516-.632.885.885 0 00-.261-.628c-.166-.165-.388-.132-.624-.132h-.004c-.361 0-.683.09-.821.423a.885.885 0 00.194.969zm9.017-2.702c.546-.04 1.08.65 1.468.604.392.392.607.911.607 1.465a2.078 2.078 0 01-2.075 2.078 2.07 2.07 0 01-1.462-.606c-.597-.595-.774-1.481-.056-2.261-.075-.776 1.36-1.28 1.518-1.28zm-.626 2.702a.888.888 0 001.517-.632.888.888 0 00-.26-.628c-.165-.163-.393-.132-.625-.132h-.002c-.331.32-.685.089.068.422-1.029.334-.62.716-.698.97z"/></svg>