<svg xmlns="http://www.w3.org/2000/svg" width="19" height="17"><path fill-rule="evenodd" fill="#243F4D" d="M9.912 16.244a.71.71 0 01-.279-.056c-.353.192-8.65-3.75-8.65-10.76C1.74 2.778 3.19.721 5.8.721c1.744 0 3.86.918 4.112 2.589.847-1.671 2.37-2.589 4.338-2.589 2.384 0 4.5 2.057 4.592 4.683 0 7.034-8.297 10.976-8.65 10.784-.089.038.608.056-.28.056zM5.8 2.106c-1.846 0-3.343 1.469-3.408 3.346.001 5.407 6.125 8.662 7.52 9.334 1.396-.672 7.521-3.93 7.521-9.358-.066-1.853-1.563-3.322-3.183-3.322-2.07 0-3.568 1.469-3.633 3.346a.7.7 0 01-.705.669.699.699 0 01-.704-.669C9.143 3.575 7.646 2.106 5.8 2.106z"/></svg>