<svg xmlns="http://www.w3.org/2000/svg" width="21" height="21"><path fill-rule="evenodd" fill="#FFF" d="M17.882 12.749a2.145 2.145 0 110-4.292c1.808 0 2.398.959 2.398 2.146 0 1.186-.59 2.146-2.398 2.146zm0-7.869a2.144 2.144 0 01-2.146-2.145c0-1.187.96-2.146 2.146-2.146 1.808 0 2.398.959 2.398 2.146 0 1.186-.59 2.145-2.398 2.145zM10.14 20.617c-1.313 0-2.272-.959-2.272-2.145 0-1.187.959-2.146 2.272-2.146 1.061 0 2.02.959 2.02 2.146 0 1.186-.959 2.145-2.02 2.145zm0-7.868c-1.313 0-2.272-.96-2.272-2.146 0-1.187.959-2.146 2.272-2.146 1.061 0 2.02.959 2.02 2.146 0 1.186-.959 2.146-2.02 2.146zm0-7.869c-1.313 0-2.272-.959-2.272-2.145 0-1.187.959-2.146 2.272-2.146 1.061 0 2.02.959 2.02 2.146 0 1.186-.959 2.145-2.02 2.145zM2.145 20.617A2.143 2.143 0 010 18.472c0-1.187.959-2.146 2.145-2.146 1.187 0 2.146.959 2.146 2.146a2.143 2.143 0 01-2.146 2.145zm0-7.868A2.144 2.144 0 010 10.603c0-1.187.959-2.146 2.145-2.146 1.187 0 2.146.959 2.146 2.146a2.144 2.144 0 01-2.146 2.146zm0-7.869A2.143 2.143 0 010 2.735C0 1.548.959.589 2.145.589c1.187 0 2.146.959 2.146 2.146A2.143 2.143 0 012.145 4.88zm15.737 11.446c1.808 0 2.398.959 2.398 2.146 0 1.186-.59 2.145-2.398 2.145a2.144 2.144 0 01-2.146-2.145c0-1.187.96-2.146 2.146-2.146z"/></svg>