<svg xmlns="http://www.w3.org/2000/svg" width="16" height="16"><path fill-rule="evenodd" fill="#243F4D" d="M15.32 14.61c-.421 1.02-1.993 1.63-3.73-.292l-2.059-2.35a6.28 6.28 0 01-2.548.538c-3.469 0-6.279-2.801-6.279-6.257C.704 2.793 3.511.3 6.98.3c3.465 0 6.278 2.496 6.278 5.952 0 .93.302 2.388-.567 2.605l2.579 2.036c1.46 1.746.502 3.266.05 3.717zM6.98 1.305c-2.742 0-4.84 2.216-4.84 4.947 0 2.732 2.095 4.948 4.84 4.948 2.741 0 4.965-2.216 4.965-4.948 0-2.731-2.224-4.947-4.965-4.947zm7.198 10.56l-2.008-1.88c-.537.513-.995.967-1.516 1.34l1.871 2.188c.294.323 1.126.867 1.881.226.209-.176.984-1.069-.228-1.874zM6.493 10.84c-.811-.917-1.556-1.305-2.143-1.886a4.171 4.171 0 01-1.135-2.136c-.066-.354.128-.677.487-.068.868-.65.679-.544.745-.19.097.581.356 1.066.78 1.93.421-.053.942.236 1.494.336.729.065.552.389.486.743-.065.323-.358.556-.714 1.271z"/></svg>