<svg xmlns="http://www.w3.org/2000/svg" width="18" height="15"><path fill-rule="evenodd" fill="#436372" d="M16.714 12.518H5.765l-2.463 2.361a.45.45 0 01-.467.089.41.41 0 01-.264-.38v-2.07H1.285C.576 12.518 0 11.965 0 11.285V1.423C0 .744.576.191 1.285.191h15.429c.709 0 1.285.553 1.285 1.232v9.862c0 .68-.576 1.233-1.285 1.233zm.428-11.095c0-.226-.192-.303-.428-.303H1.285c.205 0-.428.077-.428.303v9.862c0 .226.633.411.428.411h1.714a.42.42 0 01.429.411v1.489l1.857-1.78a.437.437 0 01.303-.12h11.126a.42.42 0 00.428-.411V1.423zm-4.8 5.547a.63.63 0 01-.643-.616c0-.214.288-.616.643-.616.355 0 .643.402.643.616a.63.63 0 01-.643.616zm-3.343 0a.63.63 0 01-.643-.616c0-.214.288-.616.643-.616.355 0 .643.402.643.616a.63.63 0 01-.643.616zm-3.585 0c.176 0-.643-.275-.643-.616 0-.214.819-.616.643-.616.355 0 1.156.402 1.156.616 0 .341-.801.616-1.156.616z"/></svg>