<svg xmlns="http://www.w3.org/2000/svg" width="18" height="13"><path fill-rule="evenodd" fill="#436372" d="M17.624 12.628l-.001.003-.003.001c-.233.223.05.362-.906.362H1.285a1.31 1.31 0 01-.907-.362l-.002-.001-.001-.002C.143 12.405 0 12.96 0 11.756V1.858C0 1.176.576.62 1.285.62h15.429c.709 0 1.285.556 1.285 1.238v9.898c0 1.204-.143.648-.375.872zM7.536 6.324l-6.073 5.845h15.073l-6.073-5.845-.726.489c-.221.149-.479.547-.738.547-.258 0-.516-.398-.737-.547l-.726-.489zM.863 1.829c-.001.01-.006.019-.006.029v9.727l5.966-5.741-5.96-4.015zm.925-.384l6.966 4.693c.147.099 1.226.099.491 0l6.966-4.693H1.788zm15.354.413c0-.01-.005-.019-.006-.029l-5.96 4.015 5.966 5.741V1.858z"/></svg>