<svg xmlns="http://www.w3.org/2000/svg" width="14" height="14"><path fill-rule="evenodd" fill="#436372" d="M13.809 12.754a.42.42 0 01-.427.411H.549a.42.42 0 01-.428-.411c0-2.989 2.096-5.491 5.489-6.29-1.35-.617-2.281-1.71-2.281-2.965C3.329 1.571 4.96.3 6.965.3s3.636 1.271 3.636 3.199c0 1.255-.697 2.348-1.732 2.965 2.844.799 4.94 3.301 4.94 6.29zM9.746 3.499C9.746 2.25 8.498.825 6.965.825c-1.533 0-2.78 1.425-2.78 2.674 0 1.474 1.247 2.674 2.78 2.674 1.533 0 2.781-1.2 2.781-2.674zM6.965 6.995c-3.158 0-5.753 2.364-5.973 5.348h11.947c-.221-2.984-2.816-5.348-5.974-5.348z"/></svg>