<svg xmlns="http://www.w3.org/2000/svg" width="43" height="42"><path fill-rule="evenodd" fill="#A3BBC8" d="M41.984 8.578L28.764 29.25c.528.885.825 2.131.825 3.445 0 4.673-3.743 8.474-8.343 8.474s-8.343-3.801-8.343-8.474c0-1.314.296-2.56.824-3.455L.509 8.578a.918.918 0 01.115-1.14L6.943 1.2c.167-.35.394-.445.631-.445h27.344c.237 0 .464.095.631.445l6.32 6.238c.298.305.346.78.115 1.14zM21.246 39.357c3.616 0 6.558-2.988 6.558-6.662 0-3.475-2.942-6.365-6.558-6.365-3.617 0-6.558 2.89-6.558 6.365 0 3.674 2.941 6.662 6.558 6.662zm.013-15.136l9.85-15.235H11.383l9.849 15.235h.027zm-6.48 3.126a8.34 8.34 0 014.476-2.882L9.247 8.986H2.908l11.871 18.361zm19.77-24.78H7.943L3.41 7.174h36.42l-5.281-4.607zm-1.305 6.419L23.237 24.465c1.993.446 3.348 1.477 4.476 2.883l11.87-18.362h-6.339zM20.131 29.377h1.418c.861 0 .892.406.892.907v6.636c0-.327-.031.079-.892.079.011 0-.893-.406-.893-.079v-5.73h-.525a.9.9 0 01-.892-.906.9.9 0 01.892-.907z"/></svg>