<svg xmlns="http://www.w3.org/2000/svg" width="37" height="38"><path fill-rule="evenodd" fill="#A3BBC8" d="M35.488 11.991L18.4 29.631c-.507.112-.644.192-.793.234l-5.696 1.595c-.029.007-.227.03-.227.03H7.59c-1.029 0-1.433.33-1.433-.911 0 .191.404-.91 1.433-.91h3.408l1.394-5.065a.918.918 0 01.232-.401l.014-.014H7.59c-1.029 0-1.433-.408-1.433-.911 0-.502.404-.91 1.433-.91h6.853l5.431-5.48H7.59c-1.029 0-1.433-.407-1.433-.91 0-.503.404-.308 1.433-.308h14.09l8.428-9.106a3.038 3.038 0 014.318 0l1.062 1.071a3.102 3.102 0 010 4.356zM13.717 26.595l-.736 2.676 2.652-.743-1.916-1.933zm15.254-16.308L14.538 24.848l2.827 2.853 14.434-14.562-2.828-2.852zm5.241-1.365L33.15 7.851a1.236 1.236 0 00-.883-.368c-.32 0-.64.122-.883.368l-1.136 1.148 3.502 2.853.462-1.148a1.27 1.27 0 000-1.782zm-5.67-2.792c-.112 0-.903-.525-.903-1.027V2.23c0-.095-.075.37-.167.37H9.283v5.012c0 1.097-.886 1.99-1.974 1.99H1.806v26.366c0 .652.076.17.169.17h25.497c.092 0 .167.482.167-.17V22.67c0-1.106.791-1.513.903-1.513.858 0 .902.407.902 1.513v13.298c0 1.692-.885 1.992-1.973 1.992H1.975C.887 37.96.1 37.66.1 35.968V8.691c0-.241.87-.473.166-.221L7.742.505A.898.898 0 018.38.238h19.092c1.087 0 1.972.894 1.972 1.992v2.873c0 .502-.044 1.027-.902 1.027zM7.478 3.347L3.83 7.781h3.479a.17.17 0 00.169-.17V3.347z"/></svg>