<svg xmlns="http://www.w3.org/2000/svg" width="74" height="60"><path fill-rule="evenodd" fill="#A3BBC8" d="M56.499 25.624c9.32 0 16.875 7.556 16.875 16.875 0 9.32-7.555 16.875-16.875 16.875-9.319 0-16.875-7.555-16.875-16.875 0-9.319 7.556-16.875 16.875-16.875z"/><path fill-rule="evenodd" fill="#243F4D" d="M60.635 47.856H38.943l.877 7h3.634c1.016 0 1.073.48 1.073 1.072 0 .591-.057 1.071-1.073 1.071H20.545c-.593 0-1.074-.48-1.074-1.071 0-.592.481-1.072 1.074-1.072h3.634l1.381-7H3.364A3.364 3.364 0 010 44.499V3.356A3.363 3.363 0 013.364 0h57.271a3.363 3.363 0 013.364 3.356v41.143a3.364 3.364 0 01-3.364 3.357zm-22.979 7l-.877-7H27.22l-.877 7h11.313zm24.196-51.5c0-.669-.546-1.214-1.217-1.214H3.364c-.671 0-1.217.545-1.217 1.214v41.143c0 .669.546 1.214 1.217 1.214h57.271c.671 0 1.217-.545 1.217-1.214V3.356zm-3.508 38.786H13.673c.117 0-1.074-.48-1.074-.442 0-1.221 1.201-1.701 1.074-1.701H57.27V6.714h-2.362a1.074 1.074 0 01-1.074-1.072c0-.142.481-1.071 1.074-1.071h3.436c.593 0 1.074.929 1.074 1.071V41.7c0-.038-.481.442-1.074.442zm-5.799-21.643v16c0 1.411.095 1.071-1.074 1.071-.593 0-1.073.34-1.073-1.071v-16c0-.592.48-1.072 1.073-1.072 1.179 0 1.074.48 1.074 1.072zM39.564 34.214v2.285c0 1.411.266 1.072-1.074 1.072-.593 0-1.074.339-1.074-1.072v-2.285c0-.592.481-1.072 1.074-1.072 1.34 0 1.074.48 1.074 1.072zm-12.981-6.858v9.143c0 1.411-.481 1.072-1.074 1.072-.593 0-1.074.339-1.074-1.072v-9.143c0-.592.481-1.071 1.074-1.071.593 0 1.074.479 1.074 1.071zm28.253-13.714a3.365 3.365 0 01-3.365 3.357c-.502 0-.979-.111-.841-.309l-9.171 9.09c.252.47.396 1.007.396 1.576a3.365 3.365 0 01-6.73 0c0-.184.016-.365.045-.542l-7.348-3.881a3.357 3.357 0 01-3.852.55l-8.407 8.141c.211.996.329.929.329 2.076 0 1.222-1.509 2.728-3.365 2.728-1.855 0-3.364-1.506-3.364-2.728 0-2.481 1.509-3.987 3.364-3.987 1.293 0 1.078.136 2.143 1.157l7.803-8.924c-.211-.438-.329-.786-.329-1.447a3.365 3.365 0 016.729 0c0 .184-.015.365-.044.911l7.348 3.512a3.354 3.354 0 013.721-.614l8.604-9.089a3.33 3.33 0 01-.395-1.577 3.364 3.364 0 016.729 0zM12.527 31.856c-.671 0-1.217.545-1.217 1.844 0 .04.546.585 1.217.585s1.217-.545 1.217-.585c0-1.299-.545-1.844-1.217-1.844zm12.982-12.571c-.671 0-1.217.545-1.217 1.214a1.217 1.217 0 002.434 0c0-.669-.546-1.214-1.217-1.214zm12.981 6.857c-.671 0-1.217.545-1.217 1.214 0 .904.546 1.215 1.217 1.215s1.217-.311 1.217-1.215c0-.669-.546-1.214-1.217-1.214zm12.981-13.714c-.671 0-1.217.544-1.217 1.214a1.217 1.217 0 002.434 0c0-.67-.545-1.214-1.217-1.214zm-1.145-5.715H6.729v33.286H9.92c-.235 0 .245.48.245 1.701 0-.038-.48.442-.245.442H5.655c-.035 0-1.074-.48-1.074-.442V5.642c0-.142 1.039-1.071 1.074-1.071h44.671c.593 0 1.074.929 1.074 1.071 0 .591-.481 1.071-1.074 1.071z"/></svg>