<svg xmlns="http://www.w3.org/2000/svg" width="44" height="40"><path fill-rule="evenodd" fill="#A3BBC8" d="M37.869 21.953v7.827c0 .083-.393.788-1.052 1.185a2.085 2.085 0 01-1.08.305c-.359 0-.537-.094-1.046-.283-5.961-3.424-12.408-5.521-19.186-6.244l4.159 11.784c.236.664.14 1.407-.254 1.986-.27 1.417-1.042.925-1.731.925h-4.858a2.17 2.17 0 01-1.986-1.338L5.994 24.288c-1.031-.469-1.782-1.471-1.244-2.664H2.715c-1.49 0-2.585-1.245-2.585-2.775v-6.095c0-1.53 1.095-2.774 2.585-2.774H4.75c-.484-1.658.892-2.67 2.556-2.67 0 0 6.628-.21 6.685-.313 7.333-.559 14.298-2.706 20.7-6.384a2.069 2.069 0 012.126.022c.659.675 1.052 1.102 1.052 1.886v7.126c2.964.763 5.263 3.002 5.263 6.153 0 3.15-2.299 5.758-5.263 6.153zM4.52 12.119H2.715c-.341 0 .255.285.255.635v6.095c0 .35-.596.635-.255.635H4.52v-7.365zm8.457-2.949H7.306c-.646 0-1.171.54-1.171 1.203V21.23c0 .488.285.909.694 1.097.15.066.401.077.403.102l5.745.004V9.17zm.252 15.402H8.31l4.483 12.708a.03.03 0 00.027.019h4.859c.008 0 .015 0 .024-.014.009-.013.007-.019.004-.028l-4.478-12.685zM35.786 2.521c0-.015 0-.028-.023-.041-.026-.016-.042-.007-.056.001C29.305 6.158 22.363 8.366 15.6 9.52v13.029c6.762.685 13.705 2.892 20.108 6.57.013.008.029.017.055.001.023-.014.023.82.023.66V2.521zm2.083 9.292v7.974c1.811-.374 3.611-2.019 3.611-3.987s-1.8-3.614-3.611-3.987z"/></svg>