<svg xmlns="http://www.w3.org/2000/svg" width="61" height="64"><path fill-rule="evenodd" fill="#A3BBC8" d="M43.499 29.624c9.32 0 16.875 7.556 16.875 16.875 0 9.32-7.555 16.875-16.875 16.875-9.319 0-16.875-7.555-16.875-16.875 0-9.319 7.556-16.875 16.875-16.875z"/><path fill-rule="evenodd" fill="#243F4D" d="M47.581 22.501c.666 1.103.666 2.472 0 4.259l-1.314 1.491c.673.286.003.626.523.958l-.319 2.512c.199 1.379-.322 2.548-1.36 3.589l-1.361 1.216c-.944.197-1.135.594-1.214.813l-.593 2.473c-.301 1.868-1.261 2.558-2.505 2.529l-.985.241 6.928 15.599c.147.332.106.717-.107 1.01.336.292-.566.446-.923.404l-5.571-.673-3.21 4.646c-.187.271.19.431-.818.431a.985.985 0 01-.912-.596L26.76 47.46l-.928.85c-.546.057-1.159.225-1.222.225-1.161 0-1.773-.168-2.319-.225l-.896-.831-7.072 15.924a.998.998 0 01-.911.596c.458 0-.631-.16-.819-.431l-3.209-4.646-5.572.672a.992.992 0 01-.922-.403 1.015 1.015 0 01-.107-1.01L9.707 42.59l-1.023-.25c-1.245.02-2.205-.67-2.506-2.529l-.593-2.474c-.078-.227-.269-.615-.115-.812L3.11 35.3c-1.137-1.032-1.658-2.301-1.458-3.58l.778-2.511c.52-.332-.15-.672-.575-.958L.542 26.76c-.419-1.786-.419-3.156-.001-4.259l1.314-2.174c.425.073 1.095-.627.585-.958l-.788-2.513a3.313 3.313 0 011.458-3.309l2.36-1.027c-.153-.666.038-.955.116-1.281l.593-2.473a3.404 3.404 0 012.506-2.53l2.45-.598c.323-.079.609-.272.805.302l1.481-2.55c.755-1.398 2.011-1.924 3.279-1.723l2.488.953c.328-.506.665-.15.949-.748L22.291.546c1.092-.421 2.449-.421 3.541 0l2.154 1.327c.284.597.621.241.949.757l2.489-.963c1.267-.201 2.524.325 3.279 1.733l1.481 2.55c.195-.584.481-.39.805-.311l2.45.598a3.406 3.406 0 012.505 2.53l.593 2.473c.078.327.27.615 1.223 1.29l1.352 1.017a3.438 3.438 0 011.359 3.311l.319 2.511c-.52.331.15 1.031-.523.958l1.314 2.174zm-12.64 38.454l2.544-3.682c.211-.305 1.075-.469.937-.424l4.415.532-6.319-14.228c-.128.09-.242.201-.336.33l-1.48 2.056c-.133.183-.281.35-.442.861l3.333 7.145c.225.985 0 1.105.307 1.332-.942.06-1.081.089-1.218.089a.998.998 0 01-.911-.596l-3.311-7.457a3.371 3.371 0 01-1.037-.003l-2.488-.395a1.355 1.355 0 00-.407-.003l6.413 14.443zM5.326 57.382l4.415-.533a.995.995 0 01.938.424l2.543 3.682 6.411-14.437a1.362 1.362 0 00-.446-.003l-2.489.395c-.336.054-.428.054-.997.009l-3.308 7.451a1 1 0 01-.912.595c-.137 0-.275-.028.249-.088-1.16-.228-1.385-.347-1.16-1.332l3.321-6.865c-.172-.77-.331-.947-.471-1.142l-1.481-2.055a1.406 1.406 0 00-.304-.307L5.326 57.382zm40.55-33.831l-1.314-2.175c-.419-.694-.58-1.518-.455-1.826l.391-3.006c.083-.394-.132-1.052-.561-1.367l-2.036-1.494a3.441 3.441 0 01-1.305-1.969L40.4 9.24c-.521-.518-.917-.918-1.431-1.044l-2.45-.599c-.783-.191-1.089-.659-1.95-1.317l-.689-2.055c-1.104-.433-1.623-.649-2.146-.566l-2.488.881c-.795-.36-1.612-.37-2.299-.947l-2.155-1.326a1.39 1.39 0 00-1.462 0l-2.154 1.326c-.687.577-1.504.587-2.299.937l-2.488-.872c-.523-.083-1.042.134-1.029.567L13.555 6.28c.255.657-1.167 1.126-1.951 1.317l-2.45.598c-.514.126-.91.526-1.034 1.045l-.593 2.473a3.441 3.441 0 01-1.305 1.969l-2.036 1.495c-.429.314-.644.973-.561 1.366l.535 3.007c-.019.308-.181 1.132-.6 1.826l-1.313 2.175c-.275 1.049-.275 1.02 0 1.709l1.313 1.941c.419.694.581 1.518.6 2.321l-.536 2.808c-.082.231.133 1.52.561 1.07l2.036 1.495c.652.478 1.115 1.835 1.305 1.969l.593 2.473c.124.518.521.918 1.034 1.044l2.45.598c.784.192 2.187.66 1.951 1.318l1.796 2.055c-.004.433.515.848 1.038.567l2.489-.395c.643-.028.352-.042.527-.042.856 0 1.236.172 1.772.502l2.154 1.326a1.39 1.39 0 001.462 0l2.154-1.326a3.375 3.375 0 012.299-.46l2.488.395c.524.281 1.042-.134 2.137-.566l.698-2.055c.852-.659 1.166-1.126 1.95-1.318l2.45-.598c.514-.126.91-.526 1.332-1.045l.296-2.473c.189-.134.653-1.49 1.304-1.968l2.037-1.496c.428.46.643-.838.561-1.06l-.392-2.818a3.466 3.466 0 01.456-2.321l1.314-1.941c.275-.689.275-.66 0-1.709zM36.77 37.145a17.944 17.944 0 01-12.772 5.33c-3.887 0-7.786-1.26-11.046-3.821a1.014 1.014 0 01-.175-1.414c.339-.44.966-.519 1.401.39 6.363 4.99 15.468 3.854 21.18-1.911a16.276 16.276 0 002.981-18.749c.571-.497-.051-1.103.441-1.354.493-.251 1.093-.052 1.342 1.004 3.519 7.34 2.172 14.948-3.352 20.525zm.024-23.247c-.276 0-.551-.115-.334-.34-.635-.252-.866.012-1.102-.739a16.497 16.497 0 00-.732-.695 1.014 1.014 0 01-.087-1.422.99.99 0 011.409-.088c.28.25.557.512.822.779.58.268.525.547.772.83a1.014 1.014 0 01-.087 1.422c-.19.169-.165.253-.661.253zm-1.049 7.255c.22.683.032 1.411-.491 2.367l-4.442 3.679 1.179 5.99c.139.705-.133 1.406-.709 1.991-.576.26-1.32.305-1.942-.047l-4.73-2.983-5.828 2.983a1.789 1.789 0 01-.884.236c-.371 0-.74-.118-1.058-.189-.576-.585-.848-1.286-.709-1.991l1.179-5.99-4.442-3.679c-.523-.956-.711-1.684-.491-2.367a1.79 1.79 0 011.504-1.246l6.008-.719 2.534-5.546c.298-.653.926-1.059 2.187-1.059.163 0 .791.406 1.089 1.059l2.535 5.546 6.007.719a1.79 1.79 0 011.504 1.246zm-8.302-.03c.537.697-.643-.26-.789-.579l-2.044-5.675-3.142 5.675c-.145.319-.228 1.276-.789.579l-6.148.736 5.229 4.243c-.429.238-.315.593-.383 1.288l-1.206 5.778 5.402-3.052c.152.184.32-.129 1.037-.129-.381 0-.213.313-.061.129l5.402 3.052-1.206-5.778c-.068-.695.046-1.05.715-1.288l4.131-4.243-6.148-.736zM31.248 9.81c-5.738-3.161-13.662-1.952-18.576 3.009-5.711 5.765-6.284 14.956-1.332 21.379.339.44.261 1.073-.174 1.415a.993.993 0 01-1.402-.176c-5.569-7.225-4.926-17.561 1.495-24.043 5.526-5.578 13.921-6.937 20.89-3.274.492.142.69.748.441 1.245-.249.497-.85 1.255-1.342.445z"/></svg>