<svg xmlns="http://www.w3.org/2000/svg" width="79" height="64"><path fill-rule="evenodd" fill="#A3BBC8" d="M61.499 29.624c9.32 0 16.875 7.556 16.875 16.875 0 9.32-7.555 16.875-16.875 16.875-9.319 0-16.875-7.555-16.875-16.875 0-9.319 7.556-16.875 16.875-16.875z"/><path fill-rule="evenodd" fill="#243F4D" d="M58.492 37.654c-.184 0-.371-.046-.542-.144l-2.004-1.145c-.519.315-.697-.954-.397-1.467.299-.514.963-.69 1.761-.393l2.05 1.145c.195.297.373.953.073 1.467a1.088 1.088 0 01-.941.537zM57.31 18.39c-.45-.254-.636-.208-.82-.208-.375 0-.74-.192-.941-.537-.3-.513-.122-1.17.397-1.466l2.005-.849c.518-.593 1.182-.418 1.482.096.3.514.122 1.17-.073 1.467l-2.05 1.497zm5.06 7.882a1.08 1.08 0 01-1.086 1.074h-2.315a1.08 1.08 0 01-1.085-1.074 1.08 1.08 0 011.085-1.074h2.315c.6 0 1.086.481 1.086 1.074zm-3.412 18.837l2.762-.419c-.061-.116.511.261.629.843.117.581.501 1.147-.851 1.263l-5.788 1.146a1.091 1.091 0 01-.98-.294c-.257-.254-.368-.348-.297-.97l1.158-5.727a1.084 1.084 0 011.277-.842c.587.116.968.682.851 1.263l-.484 2.394c5.575-4.549 7.594-10.832 7.594-17.494 0-13.303-10.936-24.125-24.379-24.125-7.923 0-14.75 3.832-19.948 10.251a1.092 1.092 0 01-1.512.26 1.067 1.067 0 01-.262-1.496C23.702 4.172 31.822 0 40.45 0c15.44 0 26.549 11.785 26.549 26.272 0 7.151-2.059 13.901-8.041 18.837zM24.41 18.182c-.184 0-.01-.046-.541.198l-2.005-1.487a1.068 1.068 0 01-.397-1.467c.3-.514.963-.689 1.482-.096l2.005.848c.519.297.697.954.397 1.467a1.086 1.086 0 01-.941.537zm.544 18.183l-2.005 1.145a1.08 1.08 0 01-.541.144c-.078 0-.74-.192-.941-.537-.3-.513-.122-1.17.397-1.466l2.005-1.146c.519-.297 1.651-.121 1.482.393.3.513.122 1.782-.397 1.467zm6.779 4.848c.519.296.696.953.397 1.467l-1.158 1.983c-.201 1.137-.565.537-.652.537-.472 0-.659-.046-.83.36-.519-.8-.697-1.457.44-1.971l.32-1.983c.3.314.964-.69 1.483-.393zm-.542-29.738c-.374 0-.739-.193-.94-.537l-.321-1.984c-1.137-.514-.959-1.171-.44-1.467 1.41-.297 1.183-.121 1.483.393l1.157 1.984c.299.513.122 1.476-.397 1.467a1.098 1.098 0 01-.542.144zm8.029 11.033c0 3.627-2.959 5.225-5.337 6.662-1.926 1.41-3.262 1.67-3.734 3.53h7.986c.599 0 1.085-.149 1.085.444a1.08 1.08 0 01-1.085 1.074h-9.26a1.08 1.08 0 01-1.085-1.074c0-3.283 2.685-4.733 5.054-6.012 2.617-1.413 4.656-2.43 4.656-4.624 0-1.754-2.04-3.18-3.995-3.18-1.954 0-3.545 1.426-3.545 3.18a1.08 1.08 0 01-1.085 1.074 1.08 1.08 0 01-1.085-1.074c0-2.938 2.564-5.328 5.715-5.328s5.715 2.39 5.715 5.328zm11.429 19.098l1.158 1.983c.3.514.122 1.171-.397 1.981-.171-.416.11-.37-.542-.37-.375 0-.739.6-.94-.536L48.77 42.68a1.067 1.067 0 01.397-1.467c.519-.297 1.183.707 1.482.393zM39.365 7.945V5.654c0-.044.486-1.073 1.085-1.073 1.04 0 1.085 1.029 1.085 1.073v2.291c0 .593-.045 1.245-1.085 1.245-.599 0-1.085-.652-1.085-1.245zm10.344 3.529c-.184 0-.371-.046-.542-.143-.519.009-.696-.954-.397-1.467l1.158-1.984a1.09 1.09 0 011.482-.393c.519.296.697.953.397 1.466l-1.158 1.984c-.2.345.191.537-.94.537zm3.401 17.088c0 .594-.486 1.074-.87 1.074h-1.445v3.508a1.08 1.08 0 01-1.085 1.074 1.08 1.08 0 01-1.086-1.074v-3.508h-7.017c-.329 0-.64-.147-.846-.402a1.061 1.061 0 01-.213-.904l2.315-10.12c.13-.768.709-.44 1.295-1.004.585.128.953.702.824 1.281l-2.022 9.002h5.665v-9.235a1.08 1.08 0 011.085-1.074 1.08 1.08 0 011.085 1.074v9.235h1.455c.374 0 .86.48.86 1.073zm-33.419-1.958l-4.069 4.026c-.833.825-.937 2.146-.242 3.073a73.68 73.68 0 007.079 8.081c3.211 2.581 5.355 4.938 8.167 7.005.936.688 2.271.586 3.104-.239l4.07-4.027c1.439-.533 3.683-1.729 5.457-.742l11.588 6.45c1.745.676 2.02 2.609 2.715 3.23-.304 1.442-.797 2.871-1.857 3.92l-4.292 4.247c-1.596 1.579-3.856 2.371-6.634 2.371-2.499 0-5.418-.641-8.651-1.269-6.529-3.253-13.672-8.193-19.996-14.568C9.572 41.789 4.58 34.721 1.957 28.26.785 21.506.625 16.135 2.406 13.134l4.292-4.247a4.698 4.698 0 013.961-1.339c1.841.189 2.581.986 3.264 2.188l6.518 11.467a4.491 4.491 0 01-.75 5.401zm-1.142-4.348L12.31 10.789c-.626-.61-.55-1.016-1.946-1.113-.112-.015-.225-.023-.084-.023-.915 0-1.555.266-2.048.753l-.75.742 1.344 2.439c.287.521.093 1.173-.433 1.853-.165-.307.107-.265-.518-.265-.385 0-.757-.202-.954-.56l-1.039-1.884-1.942 1.922c-2.344 2.319-2.333 6.987.03 12.806 2.517 6.198 7.339 13.011 13.578 19.185 6.239 6.174 13.124 10.945 19.387 14.156 5.88 1.618 10.597 1.629 12.941-.69l1.942-1.923-9.318-5.029c-.527-.284-.721-.936.17-1.457-.317-.521.45-.713.869-.429l9.879 5.333.75-.742c.576-.57.962-1.339.738-2.11-.098-.273-.508-1.307-1.125-1.65l-11.588-6.45c-.93-.517-1.313-.358-2.859.757l-1.936 1.547 1.904 1.028c.526.284.918.936.433 1.457-.197.357-.57.758-.954.758-.175 0-.353-.24-.518-.329l-2.465-1.331-.533 1.14c-1.589.961-4.14 1.152-5.934-.167a76.204 76.204 0 01-8.407-7.21 76.012 76.012 0 01-7.286-8.32c-1.332-1.775-1.139-4.299 1.242-5.871l-.259-.528-5.387-9.773a1.068 1.068 0 01.433-1.457c.526.346 1.185-.092 1.472.428L16.22 27.1l1.937-1.25c.754-1.511 1.563-2.674.392-3.594z"/></svg>