<svg xmlns="http://www.w3.org/2000/svg" width="73" height="52"><path fill-rule="evenodd" fill="#A3BBC8" d="M55.499 17.624c9.32 0 16.875 7.556 16.875 16.875 0 9.32-7.555 16.875-16.875 16.875-9.319 0-16.875-7.555-16.875-16.875 0-9.319 7.556-16.875 16.875-16.875z"/><path fill-rule="evenodd" fill="#243F4D" d="M41.619 27.458a.996.996 0 011.003.99c0 .547-.449.99-1.003.99H26.655a.996.996 0 01-1.002-.99c0-.547.449-.99 1.002-.99h14.964zm-17.102-6.469c-.256 0-.117-.096-.708-.289l-5.345-5.281c.266-.099.266-1.014 0-1.239.391-.548 1.026-.548 1.417 0l4.636 4.419 8.912-8.805a1.012 1.012 0 011.417 0 .982.982 0 010 1.4l-9.62 9.506c.074.193-.452.289-.709.289zm38.48 12.673h-3.275l.002.067c0 3.457-2.848 6.27-6.347 6.27-3.499 0-6.067-2.813-6.067-6.27 0-.022.01-.044.01-.067H24.449l.001.067c0 3.457-2.847 6.27-6.346 6.27-3.5 0-6.347-2.813-6.347-6.27l.002-.067H6.346c-1.142 0-2.071-.918-2.071-2.046v-2.178H1.2c-.752 0-1.2-.443-1.2-.99 0-.547.448-.99 1.2-.99h9.422a.996.996 0 011.002.99c0 .547-.449.99-1.002.99H6.279v2.178c0 .037.03.066.067.066h5.76a6.352 6.352 0 015.998-4.224 6.352 6.352 0 015.998 4.224h20.791v-7.458c0-.547.448-.99 1.002-.99a.996.996 0 011.002.99v7.459h.482a6.352 6.352 0 015.998-4.225 6.352 6.352 0 015.998 4.225h2.62v-4.357h-1.136c-1.731 0-3.14-1.392-3.14-3.102v-2.112a.997.997 0 011.003-.991h3.116a3.276 3.276 0 00-3.114-2.244H46.897V20a.996.996 0 01-1.002.989.995.995 0 01-1.002-.989V2.45c0 .45-.03-.471-.067-.471H6.346c-.037 0-.067.921-.067.471v17.549c0 .547-.449.99-1.002.99a.996.996 0 01-1.002-.99V2.45C4.275.917 5.204 0 6.346 0h38.48c1.142 0 2.071.917 2.071 2.45v1.774h7.549c2.321 0 4.209 2.666 4.209 4.158v1.056c0 .476-.34.873-.793.968l1.657 6.551c3.001.38 4.48 2.547 4.48 5.154v10.561c0 .547-.448.99-1.002.99zm-44.893-4.224c-2.395 0-4.343 1.925-4.343 4.291 0 3.211 1.948 4.461 4.343 4.461 2.394 0 4.342-1.25 4.342-4.461 0-2.366-1.948-4.291-4.342-4.291zm35.273 0c-2.394 0-4.027 1.925-4.027 4.291 0 3.211 1.633 4.461 4.027 4.461 2.395 0 4.343-1.25 4.343-4.461 0-2.366-1.948-4.291-4.343-4.291zm3.274-21.056c0-1.201-.989-2.178-2.205-2.178h-7.549v2.244h9.754v-.066zm-.849 2.046h-8.905v6.469h10.541l-1.636-6.469zm6.193 12.674h-2.271v1.122a1.13 1.13 0 001.136 1.122h1.135v-2.244zm-8.618 12.673c-1.142 0-2.071-.918-2.071-2.046 0-1.128.929-2.046 2.071-2.046 1.142 0 2.071.918 2.071 2.046 0 1.128-.929 2.046-2.071 2.046zm-35.273 0c-1.142 0-1.774-.918-1.774-2.046 0-1.128.632-2.046 1.774-2.046s2.071.918 2.071 2.046c0 1.128-.929 2.046-2.071 2.046zm-1.136-11.551c0 .547-.449.99-1.002.99H3.139a.996.996 0 01-1.002-.99c0-.547.449-.99 1.002-.99h12.827a.996.996 0 011.002.99z"/></svg>